<svg xmlns="http://www.w3.org/2000/svg" width="389.94" height="338.235" viewBox="0 0 389.94 338.235">
  <g id="Group_120" data-name="Group 120" transform="translate(2658.82 -2199.469)">
    <path id="Path_836" data-name="Path 836" d="M1535,372.68V569.23a98.278,98.278,0,1,1,0-196.555Zm5.12,0v85.66h98.27c-.02-47.34-44.01-85.66-98.29-85.66Zm0,111.34v85.21c54.28,0,98.27-38.15,98.27-85.21Z" transform="translate(-3914.6 1827.794)" fill="#827f54"/>
    <path id="Path_837" data-name="Path 837" d="M1535,372.68V569.23a98.278,98.278,0,1,1,0-196.555Zm5.12,0v85.66h98.27c-.02-47.34-44.01-85.66-98.29-85.66Zm0,111.34v85.21c54.28,0,98.27-38.15,98.27-85.21Z" transform="translate(-3914.6 1827.794)" fill="none" stroke="#2e1300" stroke-miterlimit="10" stroke-width="2"/>
    <path id="Path_838" data-name="Path 838" d="M1366.52,376.41V573a98.277,98.277,0,1,0,0-196.555Zm-5.12,0v85.66h-98.27C1263.13,414.76,1307.13,376.41,1361.4,376.41Zm0,111.35V573c-54.27,0-98.27-38.14-98.27-85.2Z" transform="translate(-3914.6 1827.794)" fill="#e59a59"/>
    <path id="Path_839" data-name="Path 839" d="M1366.52,376.41V573a98.277,98.277,0,1,0,0-196.555Zm-5.12,0v85.66h-98.27C1263.13,414.76,1307.13,376.41,1361.4,376.41Zm0,111.35V573c-54.27,0-98.27-38.14-98.27-85.2Z" transform="translate(-3914.6 1827.794)" fill="none" stroke="#2e1300" stroke-miterlimit="10" stroke-width="2"/>
    <path id="Path_840" data-name="Path 840" d="M1314.13,670.17v38.38c-10.19,0-18.45-8.59-18.45-19.19S1303.94,670.17,1314.13,670.17Z" transform="translate(-3914.6 1827.794)" fill="#827f54" stroke="#2e1300" stroke-miterlimit="10" stroke-width="2"/>
    <path id="Path_841" data-name="Path 841" d="M1315.43,670.17v15.55h18.45C1333.88,677.13,1325.62,670.17,1315.43,670.17Z" transform="translate(-3914.6 1827.794)" fill="#827f54" stroke="#2e1300" stroke-miterlimit="10" stroke-width="2"/>
    <path id="Path_842" data-name="Path 842" d="M1315.43,693v15.54c10.19,0,18.45-7,18.45-15.54Z" transform="translate(-3914.6 1827.794)" fill="#827f54" stroke="#2e1300" stroke-miterlimit="10" stroke-width="2"/>
    <path id="Path_843" data-name="Path 843" d="M1576.5,696h40c0,7.13-9,12.91-20,12.91S1576.5,703.13,1576.5,696Z" transform="translate(-3914.6 1827.794)" fill="#dcc963" stroke="#2e1300" stroke-miterlimit="10" stroke-width="2"/>
    <path id="Path_844" data-name="Path 844" d="M1576.5,683.09h40c0-7.14-9-12.92-20-12.92S1576.5,676,1576.5,683.09Z" transform="translate(-3914.6 1827.794)" fill="#dcc963" stroke="#2e1300" stroke-miterlimit="10" stroke-width="2"/>
    <path id="Path_845" data-name="Path 845" d="M1616.46,696h-19.67V683.09C1607.65,683.09,1616.46,688.87,1616.46,696Z" transform="translate(-3914.6 1827.794)" fill="#dcc963" stroke="#2e1300" stroke-miterlimit="10" stroke-width="2"/>
    <path id="Path_846" data-name="Path 846" d="M1596.79,683.09H1576.5c0,7.13,9.08,12.91,20.29,12.91Z" transform="translate(-3914.6 1827.794)" fill="#dcc963" stroke="#2e1300" stroke-miterlimit="10" stroke-width="2"/>
    <path id="Path_847" data-name="Path 847" d="M1355,708.55c10.19,0,18.45-8.59,18.45-19.19h-36.89C1336.56,700,1344.82,708.55,1355,708.55Z" transform="translate(-3914.6 1827.794)" fill="#c56a19" stroke="#2e1300" stroke-miterlimit="10" stroke-width="2"/>
    <path id="Path_848" data-name="Path 848" d="M1373.45,670.17c-8.25,0-14.94,8.59-14.94,19.19h14.94Z" transform="translate(-3914.6 1827.794)" fill="#c56a19" stroke="#2e1300" stroke-miterlimit="10" stroke-width="2"/>
    <path id="Path_849" data-name="Path 849" d="M1336.57,689.36h14.94c0-10.6-6.69-19.19-14.94-19.19Z" transform="translate(-3914.6 1827.794)" fill="#c56a19" stroke="#2e1300" stroke-miterlimit="10" stroke-width="2"/>
    <path id="Path_850" data-name="Path 850" d="M1475.67,708.55c10.19,0,18.45-8.59,18.45-19.19h-36.89C1457.23,700,1465.49,708.55,1475.67,708.55Z" transform="translate(-3914.6 1827.794)" fill="#8c3b04" stroke="#2e1300" stroke-miterlimit="10" stroke-width="2"/>
    <path id="Path_851" data-name="Path 851" d="M1494.12,670.17c-8.25,0-14.94,8.59-14.94,19.19h14.94Z" transform="translate(-3914.6 1827.794)" fill="#8c3b04" stroke="#2e1300" stroke-miterlimit="10" stroke-width="2"/>
    <path id="Path_852" data-name="Path 852" d="M1457.24,689.36h14.94c0-10.6-6.69-19.19-14.94-19.19Z" transform="translate(-3914.6 1827.794)" fill="#8c3b04" stroke="#2e1300" stroke-miterlimit="10" stroke-width="2"/>
    <path id="Path_853" data-name="Path 853" d="M410.52,450.22V488.6h14.94V450.22Z" transform="translate(-2784.69 2047.744)" fill="#b0bb9b" stroke="#2e1300" stroke-miterlimit="10" stroke-width="2"/>
    <rect id="Rectangle_165" data-name="Rectangle 165" width="14.94" height="11.42" transform="translate(-2357.72 2497.964)" fill="#b0bb9b" stroke="#2e1300" stroke-miterlimit="10" stroke-width="2"/>
    <rect id="Rectangle_166" data-name="Rectangle 166" width="14.94" height="11.42" transform="translate(-2357.72 2511.444)" fill="#b0bb9b" stroke="#2e1300" stroke-miterlimit="10" stroke-width="2"/>
    <rect id="Rectangle_167" data-name="Rectangle 167" width="14.94" height="11.42" transform="translate(-2357.72 2524.924)" fill="#b0bb9b" stroke="#2e1300" stroke-miterlimit="10" stroke-width="2"/>
    <rect id="Rectangle_168" data-name="Rectangle 168" width="10.97" height="15.54" transform="translate(-2497.59 2497.964)" fill="#dcc963" stroke="#2e1300" stroke-miterlimit="10" stroke-width="2"/>
    <rect id="Rectangle_169" data-name="Rectangle 169" width="10.97" height="15.54" transform="translate(-2471.68 2497.964)" fill="#dcc963" stroke="#2e1300" stroke-miterlimit="10" stroke-width="2"/>
    <path id="Path_854" data-name="Path 854" d="M298.07,450.22V488.6h14.94V450.22Z" transform="translate(-2784.69 2047.744)" fill="#dcc963" stroke="#2e1300" stroke-miterlimit="10" stroke-width="2"/>
    <rect id="Rectangle_170" data-name="Rectangle 170" width="21.5" height="15.54" transform="translate(-2521.9 2520.794)" fill="#387b5c" stroke="#2e1300" stroke-miterlimit="10" stroke-width="2"/>
    <path id="Path_855" data-name="Path 855" d="M246.35,450.22V488.6h14.94V450.22Z" transform="translate(-2784.69 2047.744)" fill="#387b5c" stroke="#2e1300" stroke-miterlimit="10" stroke-width="2"/>
    <path id="Path_856" data-name="Path 856" d="M1514.9,670.17v19.19h18.44C1533.34,678.76,1525.09,670.17,1514.9,670.17Z" transform="translate(-3914.6 1827.794)" fill="#c56a19" stroke="#2e1300" stroke-miterlimit="10" stroke-width="2"/>
    <path id="Path_857" data-name="Path 857" d="M1514.9,689.36v19.19h18.44C1533.34,698,1525.09,689.36,1514.9,689.36Z" transform="translate(-3914.6 1827.794)" fill="#c56a19" stroke="#2e1300" stroke-miterlimit="10" stroke-width="2"/>
    <path id="Path_858" data-name="Path 858" d="M368.55,450.22V488.6h14.94V450.22Z" transform="translate(-2784.69 2047.744)" fill="#c56a19" stroke="#2e1300" stroke-miterlimit="10" stroke-width="2"/>
    <rect id="Rectangle_171" data-name="Rectangle 171" width="23.44" height="25.58" transform="translate(-2294.48 2449.564)" fill="#e59a59" stroke="#2e1300" stroke-miterlimit="10" stroke-width="2"/>
    <path id="Path_859" data-name="Path 859" d="M1281.38,596.19v51.17c-13.58,0-24.6-11.46-24.6-25.59S1267.8,596.19,1281.38,596.19Z" transform="translate(-3914.6 1827.794)" fill="#e59a59" stroke="#2e1300" stroke-miterlimit="10" stroke-width="2"/>
    <path id="Path_860" data-name="Path 860" d="M1283.38,596.19v20.72H1308C1308,605.47,1297,596.19,1283.38,596.19Z" transform="translate(-3914.6 1827.794)" fill="#e59a59" stroke="#2e1300" stroke-miterlimit="10" stroke-width="2"/>
    <path id="Path_861" data-name="Path 861" d="M1283.38,626.63v20.73c13.59,0,24.6-9.28,24.6-20.73Z" transform="translate(-3914.6 1827.794)" fill="#e59a59" stroke="#2e1300" stroke-miterlimit="10" stroke-width="2"/>
    <path id="Path_862" data-name="Path 862" d="M1333.14,596.19v51.17c-13.58,0-24.59-11.46-24.59-25.59S1319.56,596.19,1333.14,596.19Z" transform="translate(-3914.6 1827.794)" fill="#e59a59" stroke="#2e1300" stroke-miterlimit="10" stroke-width="2"/>
    <path id="Path_863" data-name="Path 863" d="M1335.15,596.19v51.17c13.58,0,24.59-11.46,24.59-25.59S1348.73,596.19,1335.15,596.19Z" transform="translate(-3914.6 1827.794)" fill="#e59a59" stroke="#2e1300" stroke-miterlimit="10" stroke-width="2"/>
    <path id="Path_864" data-name="Path 864" d="M1436.67,596.19v51.17c-13.59,0-24.6-11.46-24.6-25.59S1423.08,596.19,1436.67,596.19Z" transform="translate(-3914.6 1827.794)" fill="#e59a59" stroke="#2e1300" stroke-miterlimit="10" stroke-width="2"/>
    <path id="Path_865" data-name="Path 865" d="M1438.67,596.19v51.17c13.58,0,24.6-11.46,24.6-25.59S1452.25,596.19,1438.67,596.19Z" transform="translate(-3914.6 1827.794)" fill="#e59a59" stroke="#2e1300" stroke-miterlimit="10" stroke-width="2"/>
    <rect id="Rectangle_172" data-name="Rectangle 172" width="28.66" height="20.73" transform="translate(-2532.06 2454.424)" fill="#e59a59" stroke="#2e1300" stroke-miterlimit="10" stroke-width="2"/>
    <path id="Path_866" data-name="Path 866" d="M230.7,376.24V427.4h19.93V376.24Z" transform="translate(-2784.69 2047.744)" fill="#e59a59" stroke="#2e1300" stroke-miterlimit="10" stroke-width="2"/>
    <path id="Path_867" data-name="Path 867" d="M1488.1,596.19v25.58h24.59C1512.69,607.64,1501.68,596.19,1488.1,596.19Z" transform="translate(-3914.6 1827.794)" fill="#e59a59" stroke="#2e1300" stroke-miterlimit="10" stroke-width="2"/>
    <path id="Path_868" data-name="Path 868" d="M1488.1,621.77v25.59h24.59C1512.69,633.23,1501.68,621.77,1488.1,621.77Z" transform="translate(-3914.6 1827.794)" fill="#e59a59" stroke="#2e1300" stroke-miterlimit="10" stroke-width="2"/>
    <path id="Path_869" data-name="Path 869" d="M336.26,376.24V427.4h19.93V376.24Z" transform="translate(-2784.69 2047.744)" fill="#e59a59" stroke="#2e1300" stroke-miterlimit="10" stroke-width="2"/>
    <path id="Path_870" data-name="Path 870" d="M388.63,376.24V427.4h19.92V376.24Z" transform="translate(-2784.69 2047.744)" fill="#e59a59" stroke="#2e1300" stroke-miterlimit="10" stroke-width="2"/>
    <path id="Path_871" data-name="Path 871" d="M1618.12,596.19v51.17c-13.59,0-24.6-11.46-24.6-25.59S1604.53,596.19,1618.12,596.19Z" transform="translate(-3914.6 1827.794)" fill="#e59a59" stroke="#2e1300" stroke-miterlimit="10" stroke-width="2"/>
    <path id="Path_872" data-name="Path 872" d="M1620.12,596.19v20.72h24.6C1644.72,605.47,1633.7,596.19,1620.12,596.19Z" transform="translate(-3914.6 1827.794)" fill="#e59a59" stroke="#2e1300" stroke-miterlimit="10" stroke-width="2"/>
    <rect id="Rectangle_173" data-name="Rectangle 173" width="23.44" height="25.58" transform="translate(-2294.48 2449.564)" fill="#e59a59" stroke="#2e1300" stroke-miterlimit="10" stroke-width="2"/>
    <path id="Path_873" data-name="Path 873" d="M1591.79,621.77H1542.6c0-14.13,11-25.58,24.59-25.58S1591.79,607.64,1591.79,621.77Z" transform="translate(-3914.6 1827.794)" fill="#e59a59" stroke="#2e1300" stroke-miterlimit="10" stroke-width="2"/>
    <rect id="Rectangle_174" data-name="Rectangle 174" width="19.16" height="23.5" transform="translate(-2371.99 2451.654)" fill="#e59a59" stroke="#2e1300" stroke-miterlimit="10" stroke-width="2"/>
    <rect id="Rectangle_175" data-name="Rectangle 175" width="19.16" height="23.5" transform="translate(-2341.97 2451.654)" fill="#e59a59" stroke="#2e1300" stroke-miterlimit="10" stroke-width="2"/>
  </g>
</svg>
